{
  "accessors": [
    {
      "bufferView": 2,
      "componentType": 5126,
      "count": 208,
      "max": [
        4.113626480102539,
        1.0736535787582397,
        1.3803467750549316
      ],
      "min": [
        -2.5809433460235596,
        -1.9433002471923828,
        -1.3803467750549316
      ],
      "type": "VEC3"
    },
    {
      "bufferView": 2,
      "byteOffset": 2496,
      "componentType": 5126,
      "count": 208,
      "max": [
        0.5410433411598206,
        0.8984905481338501,
        0.9983291029930115
      ],
      "min": [
        -0.7993214726448059,
        -0.09908439218997955,
        -0.9983291029930115
      ],
      "type": "VEC3"
    },
    {
      "bufferView": 1,
      "componentType": 5126,
      "count": 208,
      "max": [
        1.0,
        1.0
      ],
      "min": [
        0.0,
        0.0
      ],
      "type": "VEC2"
    },
    {
      "bufferView": 0,
      "componentType": 5125,
      "count": 312,
      "type": "SCALAR"
    },
    {
      "bufferView": 2,
      "byteOffset": 4992,
      "componentType": 5126,
      "count": 342,
      "max": [
        4.593361854553223,
        -0.41570308804512024,
        1.3803467750549316
      ],
      "min": [
        -2.828188180923462,
        -3.405923366546631,
        -1.3803467750549316
      ],
      "type": "VEC3"
    },
    {
      "bufferView": 2,
      "byteOffset": 9096,
      "componentType": 5126,
      "count": 342,
      "max": [
        0.9548907279968262,
        0.9306218028068542,
        0.9835365414619446
      ],
      "min": [
        -0.9663205742835999,
        -0.9898070096969604,
        -0.9835365414619446
      ],
      "type": "VEC3"
    },
    {
      "bufferView": 1,
      "byteOffset": 1664,
      "componentType": 5126,
      "count": 342,
      "max": [
        1.0,
        1.0
      ],
      "min": [
        0.0,
        0.0
      ],
      "type": "VEC2"
    },
    {
      "bufferView": 0,
      "byteOffset": 1248,
      "componentType": 5125,
      "count": 522,
      "type": "SCALAR"
    },
    {
      "bufferView": 2,
      "byteOffset": 13200,
      "componentType": 5126,
      "count": 184,
      "max": [
        4.4658894538879395,
        -0.198842853307724,
        0.8110112547874451
      ],
      "min": [
        -1.359589695930481,
        -3.699824810028076,
        -0.8110112547874451
      ],
      "type": "VEC3"
    },
    {
      "bufferView": 2,
      "byteOffset": 15408,
      "componentType": 5126,
      "count": 184,
      "max": [
        0.9645564556121826,
        0.7616626024246216,
        0.9949221611022949
      ],
      "min": [
        -0.7627225518226624,
        -0.9472880363464355,
        -0.9949222207069397
      ],
      "type": "VEC3"
    },
    {
      "bufferView": 1,
      "byteOffset": 4400,
      "componentType": 5126,
      "count": 184,
      "max": [
        1.0,
        1.0
      ],
      "min": [
        0.9999997615814209,
        0.0
      ],
      "type": "VEC2"
    },
    {
      "bufferView": 0,
      "byteOffset": 3336,
      "componentType": 5125,
      "count": 276,
      "type": "SCALAR"
    },
    {
      "bufferView": 2,
      "byteOffset": 17616,
      "componentType": 5126,
      "count": 96,
      "max": [
        4.672754287719727,
        -1.268355131149292,
        0.6785955429077148
      ],
      "min": [
        -4.984992027282715,
        -3.699824810028076,
        -0.6785955429077148
      ],
      "type": "VEC3"
    },
    {
      "bufferView": 2,
      "byteOffset": 18768,
      "componentType": 5126,
      "count": 96,
      "max": [
        0.5829951167106628,
        0.15294764935970306,
        0.9957411289215088
      ],
      "min": [
        -0.9098082184791565,
        -1.0,
        -0.9957411885261536
      ],
      "type": "VEC3"
    },
    {
      "bufferView": 1,
      "byteOffset": 5872,
      "componentType": 5126,
      "count": 96,
      "max": [
        1.0,
        0.5
      ],
      "min": [
        0.0,
        0.0
      ],
      "type": "VEC2"
    },
    {
      "bufferView": 0,
      "byteOffset": 4440,
      "componentType": 5125,
      "count": 144,
      "type": "SCALAR"
    },
    {
      "bufferView": 2,
      "byteOffset": 19920,
      "componentType": 5126,
      "count": 162,
      "max": [
        4.708619117736816,
        -0.4398132860660553,
        0.6785955429077148
      ],
      "min": [
        -4.984992027282715,
        -3.699824810028076,
        -0.6785955429077148
      ],
      "type": "VEC3"
    },
    {
      "bufferView": 2,
      "byteOffset": 21864,
      "componentType": 5126,
      "count": 162,
      "max": [
        0.9999946355819702,
        0.9234667420387268,
        0.9952856302261353
      ],
      "min": [
        -0.8467156887054443,
        -0.3747561275959015,
        -0.9952855706214905
      ],
      "type": "VEC3"
    },
    {
      "bufferView": 1,
      "byteOffset": 6640,
      "componentType": 5126,
      "count": 162,
      "max": [
        1.0000001192092896,
        1.0000001192092896
      ],
      "min": [
        0.0,
        0.0
      ],
      "type": "VEC2"
    },
    {
      "bufferView": 0,
      "byteOffset": 5016,
      "componentType": 5125,
      "count": 246,
      "type": "SCALAR"
    },
    {
      "bufferView": 2,
      "byteOffset": 23808,
      "componentType": 5126,
      "count": 150,
      "max": [
        4.585245132446289,
        -0.198842853307724,
        1.1929374933242798
      ],
      "min": [
        -3.7325713634490967,
        -3.69907283782959,
        -1.1929374933242798
      ],
      "type": "VEC3"
    },
    {
      "bufferView": 2,
      "byteOffset": 25608,
      "componentType": 5126,
      "count": 150,
      "max": [
        1.0,
        0.9714335799217224,
        0.9941676259040833
      ],
      "min": [
        -0.24342520534992218,
        -0.9858695268630981,
        -0.9941676259040833
      ],
      "type": "VEC3"
    },
    {
      "bufferView": 1,
      "byteOffset": 7936,
      "componentType": 5126,
      "count": 150,
      "max": [
        1.0000001192092896,
        1.0000001192092896
      ],
      "min": [
        0.5028262734413147,
        0.0
      ],
      "type": "VEC2"
    },
    {
      "bufferView": 0,
      "byteOffset": 6000,
      "componentType": 5125,
      "count": 210,
      "type": "SCALAR"
    },
    {
      "bufferView": 2,
      "byteOffset": 27408,
      "componentType": 5126,
      "count": 48,
      "max": [
        -2.076178550720215,
        -1.0224568843841553,
        0.5191958546638489
      ],
      "min": [
        -4.851530075073242,
        -2.781843423843384,
        -0.5191958546638489
      ],
      "type": "VEC3"
    },
    {
      "bufferView": 2,
      "byteOffset": 27984,
      "componentType": 5126,
      "count": 48,
      "max": [
        0.5011131763458252,
        0.18342992663383484,
        0.9974772334098816
      ],
      "min": [
        -0.3097850978374481,
        -0.837333083152771,
        -0.9974772930145264
      ],
      "type": "VEC3"
    },
    {
      "bufferView": 1,
      "byteOffset": 9136,
      "componentType": 5126,
      "count": 48,
      "max": [
        0.5302231907844543,
        0.0
      ],
      "min": [
        0.0,
        0.0
      ],
      "type": "VEC2"
    },
    {
      "bufferView": 0,
      "byteOffset": 6840,
      "componentType": 5125,
      "count": 72,
      "type": "SCALAR"
    },
    {
      "bufferView": 2,
      "byteOffset": 28560,
      "componentType": 5126,
      "count": 24,
      "max": [
        -2.616382598876953,
        -0.8289886713027954,
        0.41656357049942017
      ],
      "min": [
        -4.640244483947754,
        -1.9973740577697754,
        -0.41656357049942017
      ],
      "type": "VEC3"
    },
    {
      "bufferView": 2,
      "byteOffset": 28848,
      "componentType": 5126,
      "count": 24,
      "max": [
        -0.06131900101900101,
        0.9253298044204712,
        0.5613479018211365
      ],
      "min": [
        -0.5815571546554565,
        0.5887952446937561,
        -0.5613479018211365
      ],
      "type": "VEC3"
    },
    {
      "bufferView": 1,
      "byteOffset": 9520,
      "componentType": 5126,
      "count": 24,
      "max": [
        0.0,
        0.0
      ],
      "min": [
        0.0,
        0.0
      ],
      "type": "VEC2"
    },
    {
      "bufferView": 0,
      "byteOffset": 7128,
      "componentType": 5125,
      "count": 36,
      "type": "SCALAR"
    }
  ],
  "asset": {
    "extras": {
      "author": "clydehelder (https://sketchfab.com/clydehelder)",
      "license": "CC-BY-4.0 (http://creativecommons.org/licenses/by/4.0/)",
      "source": "https://sketchfab.com/3d-models/low-poly-raccoon-ad1dba65d5f847c79b653305cc0b7634",
      "title": "Low poly raccoon"
    },
    "generator": "Sketchfab-12.64.0",
    "version": "2.0"
  },
  "bufferViews": [
    {
      "buffer": 0,
      "byteLength": 7272,
      "name": "floatBufferViews",
      "target": 34963
    },
    {
      "buffer": 0,
      "byteLength": 9712,
      "byteOffset": 7272,
      "byteStride": 8,
      "name": "floatBufferViews",
      "target": 34962
    },
    {
      "buffer": 0,
      "byteLength": 29136,
      "byteOffset": 16984,
      "byteStride": 12,
      "name": "floatBufferViews",
      "target": 34962
    }
  ],
  "buffers": [
    {
      "byteLength": 46120,
      "uri": "scene.bin"
    }
  ],
  "materials": [
    {
      "doubleSided": true,
      "name": "most_fur",
      "pbrMetallicRoughness": {
        "baseColorFactor": [
          0.119538,
          0.0975873,
          0.0761854,
          1.0
        ],
        "metallicFactor": 0.0,
        "roughnessFactor": 0.5
      }
    },
    {
      "doubleSided": true,
      "name": "fur_shadow",
      "pbrMetallicRoughness": {
        "baseColorFactor": [
          0.09989870000000001,
          0.0822827,
          0.06301,
          1.0
        ],
        "metallicFactor": 0.0,
        "roughnessFactor": 0.5
      }
    },
    {
      "doubleSided": true,
      "name": "whitew_shadow",
      "pbrMetallicRoughness": {
        "baseColorFactor": [
          0.617207,
          0.53948,
          0.386429,
          1.0
        ],
        "metallicFactor": 0.0,
        "roughnessFactor": 0.5
      }
    },
    {
      "doubleSided": true,
      "name": "Material.001",
      "pbrMetallicRoughness": {
        "baseColorFactor": [
          0.0,
          0.0,
          0.0,
          1.0
        ],
        "metallicFactor": 0.0,
        "roughnessFactor": 0.5
      }
    },
    {
      "doubleSided": true,
      "name": "black",
      "pbrMetallicRoughness": {
        "baseColorFactor": [
          0.0104081,
          0.0104081,
          0.0104081,
          1.0
        ],
        "metallicFactor": 0.0,
        "roughnessFactor": 0.5
      }
    },
    {
      "doubleSided": true,
      "name": "material_0",
      "pbrMetallicRoughness": {
        "baseColorFactor": [
          0.768151,
          0.686686,
          0.533277,
          1.0
        ],
        "metallicFactor": 0.0,
        "roughnessFactor": 0.5
      }
    },
    {
      "doubleSided": true,
      "name": "ring_shadow",
      "pbrMetallicRoughness": {
        "baseColorFactor": [
          0.0357604,
          0.0264228,
          0.0148778,
          1.0
        ],
        "metallicFactor": 0.0,
        "roughnessFactor": 0.5
      }
    },
    {
      "doubleSided": true,
      "name": "ringen",
      "pbrMetallicRoughness": {
        "baseColorFactor": [
          0.0892574,
          0.0620182,
          0.0258704,
          1.0
        ],
        "metallicFactor": 0.0,
        "roughnessFactor": 0.5
      }
    }
  ],
  "meshes": [
    {
      "name": "Plane_most fur_0",
      "primitives": [
        {
          "attributes": {
            "NORMAL": 1,
            "POSITION": 0,
            "TEXCOORD_0": 2
          },
          "indices": 3,
          "material": 0,
          "mode": 4
        },
        {
          "attributes": {
            "NORMAL": 5,
            "POSITION": 4,
            "TEXCOORD_0": 6
          },
          "indices": 7,
          "material": 1,
          "mode": 4
        },
        {
          "attributes": {
            "NORMAL": 9,
            "POSITION": 8,
            "TEXCOORD_0": 10
          },
          "indices": 11,
          "material": 2,
          "mode": 4
        },
        {
          "attributes": {
            "NORMAL": 13,
            "POSITION": 12,
            "TEXCOORD_0": 14
          },
          "indices": 15,
          "material": 3,
          "mode": 4
        },
        {
          "attributes": {
            "NORMAL": 17,
            "POSITION": 16,
            "TEXCOORD_0": 18
          },
          "indices": 19,
          "material": 4,
          "mode": 4
        },
        {
          "attributes": {
            "NORMAL": 21,
            "POSITION": 20,
            "TEXCOORD_0": 22
          },
          "indices": 23,
          "material": 5,
          "mode": 4
        },
        {
          "attributes": {
            "NORMAL": 25,
            "POSITION": 24,
            "TEXCOORD_0": 26
          },
          "indices": 27,
          "material": 6,
          "mode": 4
        },
        {
          "attributes": {
            "NORMAL": 29,
            "POSITION": 28,
            "TEXCOORD_0": 30
          },
          "indices": 31,
          "material": 7,
          "mode": 4
        }
      ]
    }
  ],
  "nodes": [ {
      "mesh" : 0
    }],
  "scene": 0,
  "scenes": [
    {
      "name": "Sketchfab_Scene",
      "nodes": [
        0
      ]
    }
  ]
}
